Coordinates
version=1
nRows=16
nColumns=40
inDegrees=yes

Units are S.I. units (second, meters, Newtons, ...)
Angles are in degrees.

endheader
time	pelvis_tilt	pelvis_list	pelvis_rotation	pelvis_tx	pelvis_ty	pelvis_tz	hip_flexion_r	hip_adduction_r	hip_rotation_r	knee_angle_r	knee_angle_r_beta	ankle_angle_r	subtalar_angle_r	mtp_angle_r	hip_flexion_l	hip_adduction_l	hip_rotation_l	knee_angle_l	knee_angle_l_beta	ankle_angle_l	subtalar_angle_l	mtp_angle_l	lumbar_extension	lumbar_bending	lumbar_rotation	arm_flex_r	arm_add_r	arm_rot_r	elbow_flex_r	pro_sup_r	wrist_flex_r	wrist_dev_r	arm_flex_l	arm_add_l	arm_rot_l	elbow_flex_l	pro_sup_l	wrist_flex_l	wrist_dev_l
     53.30578571	     -7.25511702	     -3.53405976	    -10.55777507	      1.22228024	      0.92525838	      0.43454766	     25.83955353	     -0.68507349	     -3.66358142	     18.04141942	     18.04141942	      3.80406105	      7.03803772	      4.06878116	     11.35806290	     -5.16580587	    -11.16665214	     21.70525000	     21.70525000	     18.47935403	    -17.80997358	      6.31786028	    -10.12759358	      8.27386283	      2.64047740	    -16.97481367	     -9.56138705	    -15.13741317	     26.48276679	     46.90733932	      0.00000000	      0.00000000	     42.17857726	    -22.92999947	     -7.70202821	     85.10151601	     48.36815051	      0.00000000	      0.00000000
     53.32657143	     -7.65696707	     -3.37674502	    -11.04744222	      1.22224582	      0.92446398	      0.44009426	     26.08107598	     -0.28698572	     -3.65127786	     17.75157377	     17.75157377	      3.61612697	      7.36008071	      4.10049273	     11.23053804	     -5.41963694	    -11.59695768	     21.44240365	     21.44240365	     18.55050828	    -17.82980719	      6.31925237	     -9.85890185	      8.00520806	      2.80077575	    -16.16619075	     -9.37634617	    -15.08688453	     26.86103101	     46.89211603	      0.00000000	      0.00000000	     42.41899684	    -22.80473780	     -7.73506830	     85.28815913	     48.37548605	      0.00000000	      0.00000000
     53.34735714	     -7.88838157	     -3.13520073	    -11.46559763	      1.22270956	      0.92410776	      0.44572129	     25.91313862	     -0.06057549	     -3.88621550	     17.37337128	     17.37337128	      3.45729883	      8.08081351	      3.53719359	     10.69786961	     -5.53620616	    -12.22909664	     20.77202521	     20.77202521	     18.46924100	    -17.41774346	      5.95561299	     -9.71836193	      7.67717445	      2.85573183	    -15.31393110	     -9.27026746	    -15.09614747	     27.82465060	     46.84989423	      0.00000000	      0.00000000	     42.13928704	    -22.38868303	     -8.40379820	     86.07576921	     48.43206184	      0.00000000	      0.00000000
     53.36814286	     -8.20917268	     -2.95631457	    -11.78249775	      1.22322463	      0.92332279	      0.45144859	     25.97997604	      0.26622152	     -3.83175043	     17.49263351	     17.49263351	      3.20103814	      7.94135484	      1.42046589	     10.36813044	     -5.73956443	    -12.64441958	     20.29191279	     20.29191279	     18.07435763	    -17.41130240	      4.73117962	     -9.51099329	      7.45597946	      2.38530911	    -14.18680355	     -9.30846989	    -15.13780340	     29.68603724	     46.75947592	      0.00000000	      0.00000000	     41.18987335	    -22.04543418	    -10.05082462	     87.25723659	     48.55268793	      0.00000000	      0.00000000
     53.38892857	     -8.49287797	     -2.76161740	    -12.03696308	      1.22387567	      0.92274847	      0.45741715	     26.00713522	      0.58005716	     -3.64201972	     17.78454623	     17.78454623	      3.50368369	      7.68520423	      0.57361109	      9.93662109	     -5.91048660	    -13.03450556	     19.70813467	     19.70813467	     17.98313763	    -17.14586581	      4.48445939	     -9.28678000	      7.18518410	      2.42485987	    -12.78291577	     -9.33535263	    -15.04799932	     30.40839584	     46.72525412	      0.00000000	      0.00000000	     40.66727423	    -21.57209061	    -10.08719052	     87.18446516	     48.54875744	      0.00000000	      0.00000000
     53.40971429	     -8.75912541	     -2.60650897	    -12.17022729	      1.22470891	      0.92225575	      0.46334152	     25.99225771	      0.87679476	     -3.53110458	     18.14524577	     18.14524577	      3.98895745	      7.35608931	     -0.11627339	      9.44701204	     -6.09195430	    -13.33543831	     19.04494614	     19.04494614	     17.91305597	    -16.83484059	      4.29918815	     -9.05139817	      6.99207736	      2.35936937	    -11.21510583	     -9.46506204	    -15.05007524	     31.19662550	     46.69967785	      0.00000000	      0.00000000	     39.85261137	    -20.93003936	    -10.10819521	     86.89982704	     48.53799684	      0.00000000	      0.00000000
     53.43050000	     -8.97745567	     -2.47982374	    -12.21924213	      1.22565801	      0.92191570	      0.46935963	     25.90684439	      1.17660112	     -3.37784240	     18.50014411	     18.50014411	      4.51877735	      6.96253215	     -0.78775587	      8.83057952	     -6.27986489	    -13.62298380	     18.22292289	     18.22292289	     17.75993782	    -16.39126605	      4.06227369	     -8.85916862	      6.80901028	      2.18730181	     -9.44773825	     -9.64161003	    -15.10595287	     32.08049425	     46.67527973	      0.00000000	      0.00000000	     38.87132766	    -20.28220554	    -10.19628485	     86.38321459	     48.52562268	      0.00000000	      0.00000000
     53.45128571	     -9.15734344	     -2.38765834	    -12.18080996	      1.22664421	      0.92171549	      0.47544820	     25.73996998	      1.48840738	     -3.22534991	     18.77367567	     18.77367567	      5.01579652	      6.53402820	     -1.43633423	      8.10055901	     -6.49179596	    -13.92502644	     17.24182350	     17.24182350	     17.47508047	    -15.79210001	      3.68311753	     -8.71933603	      6.63285771	      1.88241304	     -7.47177888	     -9.84942981	    -15.21844220	     33.02801021	     46.65164780	      0.00000000	      0.00000000	     37.76427782	    -19.64525287	    -10.35963781	     85.54875727	     48.51024821	      0.00000000	      0.00000000
     53.47207143	     -9.32935055	     -2.36440900	    -12.02627549	      1.22766801	      0.92158006	      0.48146309	     25.54759522	      1.81272244	     -3.24216490	     19.01510035	     19.01510035	      5.54910197	      6.16486514	     -1.89150073	      7.36096307	     -6.76406702	    -14.15743389	     16.23144502	     16.23144502	     17.21850572	    -15.09351592	      3.40816260	     -8.56319273	      6.53584837	      1.60073832	     -5.44899571	    -10.12329492	    -15.32674622	     33.86939475	     46.63358783	      0.00000000	      0.00000000	     36.50971623	    -18.88796945	    -10.24960939	     84.46059205	     48.47176889	      0.00000000	      0.00000000
     53.49285714	     -9.44890395	     -2.37560267	    -11.77695662	      1.22866931	      0.92157121	      0.48746630	     25.29949821	      2.12958658	     -3.32915433	     19.21771841	     19.21771841	      6.05832902	      5.82325756	     -2.20842671	      6.55269936	     -7.06784182	    -14.42351775	     15.15724368	     15.15724368	     16.95852293	    -14.18277247	      3.18771551	     -8.44073378	      6.43453394	      1.23564574	     -3.26593962	    -10.42190417	    -15.43520309	     34.69483263	     46.61708976	      0.00000000	      0.00000000	     35.18896673	    -18.15963155	     -9.99158763	     82.94104407	     48.41518561	      0.00000000	      0.00000000
     53.51364286	     -9.52894043	     -2.41658067	    -11.42359252	      1.22956117	      0.92166825	      0.49334885	     25.00554748	      2.42970407	     -3.49597287	     19.37116689	     19.37116689	      6.55097848	      5.52297895	     -2.41339561	      5.78693725	     -7.41841458	    -14.67905598	     14.18949627	     14.18949627	     16.68874675	    -13.09832540	      3.03373937	     -8.35608544	      6.35391454	      0.82687614	     -0.96728230	    -10.73219386	    -15.52290316	     35.47156742	     46.60102808	      0.00000000	      0.00000000	     33.86170812	    -17.45366534	     -9.55131382	     80.93877343	     48.33761406	      0.00000000	      0.00000000
     53.53442857	     -9.57385616	     -2.49058707	    -10.97878015	      1.23037724	      0.92177637	      0.49908609	     24.67892602	      2.72009051	     -3.79373534	     19.50244018	     19.50244018	      7.02681260	      5.24265032	     -2.52291070	      5.14750147	     -7.84496627	    -14.94761308	     13.48857161	     13.48857161	     16.51231664	    -11.92442678	      2.99149567	     -8.26171542	      6.26325927	      0.40120567	      1.39455724	    -11.06775873	    -15.56436131	     36.20290658	     46.58318098	      0.00000000	      0.00000000	     32.54043557	    -16.75617031	     -8.85842544	     78.41586376	     48.23401209	      0.00000000	      0.00000000
     53.55521429	     -9.60927985	     -2.59153889	    -10.44824644	      1.23095172	      0.92189704	      0.50460963	     24.37143461	      3.00219729	     -4.15659762	     19.64550544	     19.64550544	      7.52861030	      4.98153840	     -2.39360221	      4.85802019	     -8.42658913	    -15.31428742	     13.45917653	     13.45917653	     16.67187542	    -10.38716568	      3.26001059	     -8.14394397	      6.20175963	      0.65867882	      3.51481443	    -11.60877314	    -15.57752404	     36.56837810	     46.55237422	      0.00000000	      0.00000000	     31.98070439	    -15.57423451	     -7.16608876	     74.27489667	     48.03377973	      0.00000000	      0.00000000
     53.57600000	     -9.57883854	     -2.65058425	     -9.82633627	      1.23143117	      0.92212872	      0.50981022	     23.99779507	      3.18084888	     -4.61773382	     19.74946419	     19.74946419	      7.96317200	      4.78265704	     -2.45580153	      4.71519878	     -8.91830032	    -15.15468581	     13.71529036	     13.71529036	     16.51687631	     -9.70892081	      3.41148736	     -8.11613859	      6.08450087	      0.03764258	      5.95344068	    -11.93729841	    -15.58730816	     37.74824148	     46.51545069	      0.00000000	      0.00000000	     30.23417818	    -15.11084644	     -6.27105370	     71.72529621	     47.91494902	      0.00000000	      0.00000000
     53.59678571	     -9.51202798	     -2.71893016	     -9.13422543	      1.23172024	      0.92239585	      0.51473648	     23.59924061	      3.33286444	     -5.15420655	     19.84514632	     19.84514632	      8.37984050	      4.61365026	     -2.48813903	      5.00764692	     -9.53477194	    -14.82695090	     14.84573267	     14.84573267	     16.42661638	     -9.26956443	      3.37869270	     -8.09730861	      5.97473529	     -0.44226619	      8.35391440	    -12.33095432	    -15.44621111	     38.86017975	     46.47261262	      0.00000000	      0.00000000	     28.62341650	    -14.54542678	     -5.12707605	     68.59663653	     47.77010970	      0.00000000	      0.00000000
     53.61757143	     -9.36880747	     -2.70417725	     -8.45983518	      1.23191900	      0.92280512	      0.51944995	     23.15958501	      3.39088417	     -5.61939916	     19.97678273	     19.97678273	      8.89419075	      4.45825619	     -2.25796600	      5.58930224	    -10.14900141	    -14.47315190	     16.69642956	     16.69642956	     16.43276594	     -8.83470952	      3.34017070	     -8.03924385	      5.72910680	      0.17763572	     10.00035220	    -13.27752771	    -14.68035645	     40.11679358	     46.36455883	      0.00000000	      0.00000000	     28.31657005	    -13.33460413	     -2.31235132	     62.68989045	     47.46784793	      0.00000000	      0.00000000
